# xmcd
#
# Track frame offsets: 
#        150
#        13901
#        30510
#        48351
#        63292
#        85004
#        95906
#        125645
#        137232
#        161408
#        171190
#        189442
#        204436
#        222413
#        241110
#
# Disc length: 3574 seconds
#
# Revision: 0
# Processed by: cddbd v1.5.2PL0 Copyright (c) Steve Scherf et al.
# Submitted via: ExactAudioCopyFreeDBPlugin 1.0
#
DISCID=ce0df40f
DTITLE=The Blind Boys Of Alabama - Go Tell It On The Mountain [2016 Ex
DTITLE=panded Reissue]
DYEAR=2003
DGENRE=Christmas
TTITLE0=Last Month Of The Year
TTITLE1=I Pray On Christmas (feat. Solomon Burke)
TTITLE2=Go Tell It On The Mountain (feat. Tom Waits)
TTITLE3=Little Drummer Boy (feat. Michael Franti)
TTITLE4=In The Bleak Midwinter (feat. Chrissie Hynde with Richard Thom
TTITLE4=pson)
TTITLE5=Joy To The World (feat. Aaron Neville)
TTITLE6=Born In Bethlehem (feat. Mavis Staples)
TTITLE7=The Christmas Song (feat. Shelby Lynne)
TTITLE8=Away In A Manger (feat. George Clinton with Robert Randolph)
TTITLE9=Oh Come All Ye Faithful (feat. Meshell Ndegeocello)
TTITLE10=White Christmas (feat. Les McCann)
TTITLE11=Silent Night
TTITLE12=My Lord What A Morning (a cappella)
TTITLE13=Go Tell It On The Mountain (Live In New York)
TTITLE14=Amazing Grace (Live In New York)
EXTD=
EXTT0=
EXTT1=
EXTT2=
EXTT3=
EXTT4=
EXTT5=
EXTT6=
EXTT7=
EXTT8=
EXTT9=
EXTT10=
EXTT11=
EXTT12=
EXTT13=
EXTT14=
PLAYORDER=
